<?xml version="1.0" encoding="UTF-8"?>
<svg width="500" height="600" viewBox="0 0 500 600" xmlns="http://www.w3.org/2000/svg">
  <!-- Cyberpunk Cyborg Silhouette -->
  
  <!-- Background glow -->
  <defs>
    <radialGradient id="cyborgGlow" cx="50%" cy="50%" r="60%" fx="50%" fy="50%">
      <stop offset="0%" stop-color="#00eeff" stop-opacity="0.3"/>
      <stop offset="70%" stop-color="#7700ff" stop-opacity="0.1"/>
      <stop offset="100%" stop-color="#ff00aa" stop-opacity="0"/>
    </radialGradient>
    
    <filter id="neonGlow" x="-20%" y="-20%" width="140%" height="140%">
      <feGaussianBlur stdDeviation="5" result="blur"/>
      <feComposite in="SourceGraphic" in2="blur" operator="over"/>
    </filter>
    
    <linearGradient id="cyberGradient" x1="0%" y1="0%" x2="100%" y2="100%">
      <stop offset="0%" stop-color="#00eeff"/>
      <stop offset="50%" stop-color="#7700ff"/>
      <stop offset="100%" stop-color="#ff00aa"/>
    </linearGradient>
  </defs>
  
  <!-- Glow backdrop -->
  <circle cx="250" cy="300" r="250" fill="url(#cyborgGlow)" opacity="0.7"/>
  
  <!-- Cyborg Body -->
  <g filter="url(#neonGlow)">
    <!-- Head -->
    <path d="M215,120 L285,120 C295,120 300,125 300,135 L300,190 C300,200 295,205 285,205 L265,205 L260,215 L240,215 L235,205 L215,205 C205,205 200,200 200,190 L200,135 C200,125 205,120 215,120 Z" 
          fill="#111122" stroke="#00eeff" stroke-width="2"/>
    
    <!-- Face -->
    <circle cx="230" cy="155" r="12" fill="#ff00aa"/>
    <circle cx="270" cy="155" r="12" fill="#ff00aa"/>
    
    <!-- Face lines -->
    <line x1="220" y1="130" x2="240" y2="130" stroke="#00eeff" stroke-width="1.5"/>
    <line x1="260" y1="130" x2="280" y2="130" stroke="#00eeff" stroke-width="1.5"/>
    <line x1="250" y1="170" x2="250" y2="190" stroke="#00eeff" stroke-width="1.5"/>
    <path d="M230,180 Q250,190 270,180" fill="none" stroke="#00eeff" stroke-width="1.5"/>
    
    <!-- Neck -->
    <path d="M230,215 L240,230 L260,230 L270,215" fill="none" stroke="#00eeff" stroke-width="2"/>
    <rect x="240" y="215" width="20" height="25" fill="#111122" stroke="#00eeff" stroke-width="1.5"/>
    
    <!-- Torso -->
    <path d="M180,250 L320,250 L340,450 L160,450 Z" fill="#111122" stroke="#00eeff" stroke-width="2"/>
    
    <!-- Chest details -->
    <path d="M220,270 L280,270 L275,330 L225,330 Z" fill="none" stroke="#ff00aa" stroke-width="1.5"/>
    <circle cx="250" cy="300" r="15" fill="none" stroke="url(#cyberGradient)" stroke-width="3"/>
    <circle cx="250" cy="300" r="5" fill="#ff00aa"/>

    <!-- Arms -->
    <path d="M180,250 L120,350 L140,420 L160,450" fill="none" stroke="#00eeff" stroke-width="2"/>
    <path d="M320,250 L380,350 L360,420 L340,450" fill="none" stroke="#00eeff" stroke-width="2"/>
    
    <!-- Hand details -->
    <circle cx="140" cy="420" r="15" fill="none" stroke="#00eeff" stroke-width="1.5"/>
    <circle cx="360" cy="420" r="15" fill="none" stroke="#00eeff" stroke-width="1.5"/>
    
    <!-- Legs -->
    <path d="M200,450 L180,550" fill="none" stroke="#00eeff" stroke-width="2"/>
    <path d="M300,450 L320,550" fill="none" stroke="#00eeff" stroke-width="2"/>
    
    <!-- Feet -->
    <path d="M180,550 L160,560 L190,570" fill="none" stroke="#00eeff" stroke-width="2"/>
    <path d="M320,550 L340,560 L310,570" fill="none" stroke="#00eeff" stroke-width="2"/>
    
    <!-- Body details - circuits and tech parts -->
    <line x1="200" y1="350" x2="300" y2="350" stroke="#00eeff" stroke-width="1" stroke-dasharray="5,5"/>
    <line x1="200" y1="380" x2="300" y2="380" stroke="#00eeff" stroke-width="1" stroke-dasharray="5,5"/>
    <line x1="200" y1="410" x2="300" y2="410" stroke="#00eeff" stroke-width="1" stroke-dasharray="5,5"/>
    
    <circle cx="200" cy="350" r="5" fill="#ff00aa"/>
    <circle cx="300" cy="350" r="5" fill="#ff00aa"/>
    <circle cx="250" cy="380" r="5" fill="#7700ff"/>
    <circle cx="200" cy="410" r="5" fill="#ff00aa"/>
    <circle cx="300" cy="410" r="5" fill="#ff00aa"/>
    
    <!-- Shoulder plates -->
    <path d="M180,250 C170,240 170,270 180,280" fill="none" stroke="#7700ff" stroke-width="2"/>
    <path d="M320,250 C330,240 330,270 320,280" fill="none" stroke="#7700ff" stroke-width="2"/>
  </g>
  
  <!-- Tech lines across body - glowing circuit patterns -->
  <g stroke="url(#cyberGradient)" stroke-width="1" opacity="0.8">
    <path d="M230,155 L210,250 L180,350" fill="none"/>
    <path d="M270,155 L290,250 L320,350" fill="none"/>
    <path d="M250,205 L250,270" fill="none"/>
    <path d="M250,330 L250,450" fill="none"/>
    <path d="M200,300 L180,300" fill="none"/>
    <path d="M300,300 L320,300" fill="none"/>
  </g>
  
  <!-- Animation elements - these would be animated with CSS -->
  <circle cx="250" cy="300" r="30" fill="none" stroke="#00eeff" stroke-width="1" opacity="0.5" class="pulse-circle"/>
  <circle cx="230" cy="155" r="20" fill="none" stroke="#ff00aa" stroke-width="1" opacity="0.3" class="pulse-circle"/>
  <circle cx="270" cy="155" r="20" fill="none" stroke="#ff00aa" stroke-width="1" opacity="0.3" class="pulse-circle"/>
  
  <!-- Scanlines filter overlay to give a retro-cyber feel -->
  <rect width="500" height="600" fill="url(#cyborgGlow)" opacity="0.05" class="scanline"/>
</svg>